PathFileType	4	(X/Y/Z)	 s09c0001.trc
DataRate	CameraRate	NumFrames	NumMarkers	Units	OrigDataRate	OrigDataStartFrame	OrigNumFrames
200	200	4	49	mm	200	501	2000
Frame#	Time	racr			lacr			c7			jug			rlel			rdr			llel			ldr			s2			lic			ric			lasi			rasi			rpsi			lpsi			rgt			lgt			rth1			rth2			rth3			rth4			rlfc			rmfc			rsh1			rsh2			rsh3			rsh4			rlmal			rmmal			rcal			rtoe			rmt5			rmt1			lth1			lth2			lth4			lth3			llfc			lmfc			llmal			lmmal			lcal			lmt1			lmt5			lsh1			lsh2			lsh3			lsh4			ltoe			
		X1	Y1	Z1	X2	Y2	Z2	X3	Y3	Z3	X4	Y4	Z4	X5	Y5	Z5	X6	Y6	Z6	X7	Y7	Z7	X8	Y8	Z8	X9	Y9	Z9	X10	Y10	Z10	X11	Y11	Z11	X12	Y12	Z12	X13	Y13	Z13	X14	Y14	Z14	X15	Y15	Z15	X16	Y16	Z16	X17	Y17	Z17	X18	Y18	Z18	X19	Y19	Z19	X20	Y20	Z20	X21	Y21	Z21	X22	Y22	Z22	X23	Y23	Z23	X24	Y24	Z24	X25	Y25	Z25	X26	Y26	Z26	X27	Y27	Z27	X28	Y28	Z28	X29	Y29	Z29	X30	Y30	Z30	X31	Y31	Z31	X32	Y32	Z32	X33	Y33	Z33	X34	Y34	Z34	X35	Y35	Z35	X36	Y36	Z36	X37	Y37	Z37	X38	Y38	Z38	X39	Y39	Z39	X40	Y40	Z40	X41	Y41	Z41	X42	Y42	Z42	X43	Y43	Z43	X44	Y44	Z44	X45	Y45	Z45	X46	Y46	Z46	X47	Y47	Z47	X48	Y48	Z48	X49	Y49	Z49	
501	2.5050	280.671818	1352.707062	380.992710	283.554178	1335.414491	-11.460751	230.081417	1402.246272	181.385318	353.351701	1350.782588	180.815458	294.471377	1092.348460	447.229296	357.526129	878.148265	577.577710	271.673622	1051.187038	-45.662196	395.530138	894.921048	-193.355822	216.318267	943.191675	188.927918	351.486694	990.609000	47.777234	339.098213	1002.499098	337.918523	408.437853	954.731988	78.888250	399.133450	966.041663	319.102556	224.723404	978.461397	243.894495	225.122200	974.673874	133.302759	325.232601	846.850807	385.894022	329.938794	836.737783	10.671226	348.439939	716.341410	381.732149	364.073259	630.829072	368.219440	332.133233	548.391577	358.630958	394.668463	629.389065	348.421084	318.744509	451.000573	334.939014	301.535615	431.034281	236.935642	277.984670	361.165141	368.074451	302.140812	274.069885	359.686380	279.141612	189.311138	361.262940	327.869431	276.970632	329.691227	276.779598	86.723205	360.349665	286.129812	93.481896	283.805594	219.168164	32.034107	318.061799	471.934751	86.069586	354.346310	388.187273	49.251460	407.095882	401.015799	39.265220	297.157500	340.353857	710.619551	9.211077	355.287454	628.890535	26.123942	391.077909	626.872595	40.011688	326.708701	543.716259	34.856029	308.830054	449.080265	47.165747	317.652501	429.006255	140.190668	268.646605	84.937120	21.754707	291.184526	96.175619	92.475533	218.706333	26.704085	68.081599	406.287225	43.983361	87.241157	381.463320	33.853688	-18.407651	278.004310	355.145791	17.620024	295.964579	270.405433	21.457036	274.493588	198.345659	14.850787	323.011990	270.782627	50.551674	472.545664	79.205022	36.476954	
502	2.5100	280.685290	1352.707943	380.997396	283.559708	1335.409965	-11.456995	230.096662	1402.249352	181.395945	353.362770	1350.763162	180.812244	294.503629	1092.352415	447.224374	357.568113	878.199629	577.550515	271.673928	1051.191180	-45.642358	395.548850	894.904498	-193.340185	216.316700	943.207292	188.927587	351.490585	990.616104	47.770437	339.106051	1002.510884	337.913759	408.420565	954.736642	78.860620	399.144803	966.044170	319.113859	224.748299	978.465432	243.896391	225.139998	974.685329	133.313556	325.243371	846.848441	385.884813	329.947326	836.730205	10.679200	348.451863	716.343154	381.726791	364.074627	630.820040	368.209706	332.145411	548.385238	358.622823	394.682638	629.398130	348.444304	318.747485	451.010395	334.937818	301.520176	431.054429	236.928949	277.986555	361.163278	368.076324	302.136084	274.077989	359.685429	279.149376	189.301190	361.258140	327.824858	276.956514	329.680621	276.771310	86.742202	360.357718	286.122735	93.504418	283.811052	219.184870	32.036616	318.048683	471.848254	86.270376	354.450146	388.212060	49.255851	407.115438	401.023348	39.261976	297.155941	340.338668	710.627078	9.212384	355.275073	628.908596	26.110623	391.071166	626.864975	40.000123	326.696455	543.711375	34.832314	308.798414	449.071169	47.158152	317.643910	428.997126	140.170420	268.665707	84.949292	21.763323	291.201647	96.165275	92.467541	218.684614	26.720767	68.093905	406.293457	43.966537	87.246811	381.463321	33.853693	-18.407666	278.001276	355.154452	17.608284	295.950451	270.403757	21.427137	274.468750	198.350747	14.801034	322.996634	270.768425	50.525699	472.557335	79.197971	36.459684	
503	2.5150	280.711581	1352.712138	380.997041	283.581412	1335.409918	-11.451725	230.123468	1402.247860	181.398426	353.386667	1350.768391	180.811196	294.511712	1092.352659	447.221860	357.559369	878.200084	577.548257	271.671975	1051.187621	-45.633969	395.546752	894.887634	-193.309333	216.319056	943.193832	188.927796	351.486168	990.622481	47.763136	339.106007	1002.510912	337.913750	408.422668	954.737271	78.865824	399.143705	966.049777	319.114493	224.736784	978.459900	243.899936	225.149884	974.686727	133.304497	325.252024	846.843516	385.877653	329.922229	836.737742	10.685570	348.455852	716.331857	381.727471	364.082895	630.825523	368.222172	332.143942	548.383390	358.631953	394.669607	629.364303	348.417864	318.735643	451.012718	334.925904	301.517175	431.037862	236.923032	277.986875	361.163401	368.076255	302.140079	274.098106	359.683739	279.155613	189.299299	361.265167	327.835723	276.917828	329.679178	276.768139	86.741360	360.357237	286.124646	93.501368	283.814250	219.146723	32.048237	318.061765	471.928636	86.071574	354.324910	388.176657	49.248033	407.092859	401.013675	39.271478	297.151145	340.333549	710.626223	9.197154	355.266072	628.892893	26.110787	391.089386	626.861137	40.028292	326.696562	543.724182	34.817314	308.798217	449.095812	47.154769	317.641851	428.991668	140.178970	268.644615	84.945809	21.768957	291.188143	96.167636	92.474950	218.699740	26.712609	68.092455	406.286432	43.978054	87.243325	381.436912	33.873842	-18.405867	277.986574	355.151510	17.601837	295.947616	270.402166	21.434965	274.467189	198.351747	14.862462	323.014275	270.806094	50.499254	472.543505	79.203823	36.476419	
504	2.5200	280.731607	1352.720018	380.993533	283.601521	1335.403391	-11.451265	230.136907	1402.253373	181.387846	353.414956	1350.757277	180.809290	294.536973	1092.350659	447.205269	357.531574	878.135767	577.553652	271.695857	1051.176043	-45.614644	395.550599	894.866503	-193.285337	216.370964	943.235548	188.940674	351.507918	990.616759	47.785462	339.127716	1002.509479	337.923986	408.431283	954.727984	78.876235	399.159353	966.045442	319.117044	224.750991	978.471542	243.902295	225.158560	974.684475	133.319459	325.260020	846.856151	385.900509	329.912712	836.733894	10.662391	348.446101	716.354230	381.738949	364.080901	630.831468	368.223075	332.158251	548.380854	358.634078	394.673367	629.371290	348.435317	318.744971	450.991461	334.945043	301.499776	431.035597	236.946101	277.971617	361.173732	368.091282	302.140810	274.075537	359.680629	279.132694	189.318149	361.270627	327.835792	276.940184	329.689637	276.789644	86.726456	360.348784	286.154203	93.476005	283.812694	219.179494	32.014926	318.056878	471.938170	86.069278	354.339387	388.178893	49.241505	407.096973	401.015862	39.269632	297.152012	340.327596	710.637406	9.199153	355.275617	628.904575	26.121835	391.078944	626.864998	39.986332	326.682045	543.719674	34.839866	308.795144	449.084234	47.166702	317.636734	429.005648	140.173644	268.644717	84.940798	21.758985	291.187807	96.168703	92.478303	218.697394	26.717109	68.095908	406.294644	43.974781	87.251711	381.427651	33.877884	-18.397262	278.001828	355.150314	17.610951	295.950764	270.388002	21.421002	274.493822	198.342898	14.815188	323.016366	270.781519	50.548771	472.543302	79.203265	36.477077	
